<svg width="42" height="13" viewBox="0 0 42 13" fill="none" xmlns="http://www.w3.org/2000/svg">
<path fill-rule="evenodd" clip-rule="evenodd" d="M30.5181 0.709961H27.6979V3.37842H26.0859V5.94675H27.6979V10.3799V11.3862V12.9986H33.1368V10.3799H30.5181V5.94675H33.237V3.37842H30.7195V0.709961H30.5181Z" fill="white"/>
<path fill-rule="evenodd" clip-rule="evenodd" d="M39.2798 0.709961H36.4596V3.37842H34.8477V5.94675H36.4596V10.3799V11.3862V12.9986H41.8985V10.3799H39.2798V5.94675H41.9987V3.37842H39.4812V0.709961H39.2798Z" fill="white"/>
<path fill-rule="evenodd" clip-rule="evenodd" d="M21.6527 3.32861H16.8182V5.94731H21.6527V6.85443H19.2866H19.2859C17.5337 6.85443 16.1133 8.22978 16.1133 9.92636C16.1133 11.6229 17.5337 12.9983 19.2859 12.9983C19.322 12.9983 19.358 12.9977 19.3938 12.9966H21.6527V12.9976H24.4729V5.94731H24.4729V3.32861H24.4729H21.6527ZM21.6529 10.4778H19.4995C19.479 10.4799 19.4582 10.481 19.4372 10.481C19.1034 10.481 18.8329 10.2105 18.8329 9.87671C18.8329 9.54297 19.1034 9.27243 19.4371 9.27239V9.26922H21.6529V10.4778Z" fill="white"/>
<path fill-rule="evenodd" clip-rule="evenodd" d="M0 3.32812H2.82013V3.32827H5.8413H8.66143H12.3882V3.32842H14.5032V12.9974H11.6831V5.94697H8.66143V12.9973H5.8413V5.94697H2.82013V12.9972H0V3.32812Z" fill="white"/>
</svg>
